<?xml version="1.0" standalone="no"?>
<!DOCTYPE svg PUBLIC "-//W3C//DTD SVG 20010904//EN"
 "http://www.w3.org/TR/2001/REC-SVG-20010904/DTD/svg10.dtd">
<svg version="1.0" xmlns="http://www.w3.org/2000/svg"
 width="832.000000pt" height="832.000000pt" viewBox="0 0 832.000000 832.000000"
 preserveAspectRatio="xMidYMid meet">
<metadata>
Created by potrace 1.14, written by Peter Selinger 2001-2017
</metadata>
<g transform="translate(0.000000,832.000000) scale(0.100000,-0.100000)"
fill="#000000" stroke="none">
<path d="M5306 8305 c4 -8 8 -15 10 -15 2 0 4 7 4 15 0 8 -4 15 -10 15 -5 0
-7 -7 -4 -15z"/>
<path d="M5355 8301 c-8 -27 2 -45 38 -66 43 -25 47 -32 41 -83 -3 -36 -1 -43
11 -39 11 5 16 -7 21 -53 7 -61 37 -108 53 -82 5 8 18 6 49 -9 23 -12 42 -25
42 -29 0 -5 9 -12 20 -15 11 -3 20 -13 20 -20 0 -8 13 -29 28 -47 15 -18 36
-45 45 -60 17 -28 17 -28 -10 -30 -16 0 -38 0 -49 1 -19 1 -22 -4 -23 -57 -1
-55 1 -60 36 -94 21 -20 47 -39 58 -42 15 -4 21 -16 23 -38 2 -18 7 -37 12
-42 6 -6 10 -40 10 -77 0 -81 35 -194 74 -235 14 -16 26 -32 26 -36 0 -3 6
-13 14 -20 36 -37 85 -189 93 -291 7 -81 -10 -105 -78 -109 -47 -3 -52 -6 -65
-36 -7 -18 -9 -30 -4 -27 11 7 14 -18 4 -28 -9 -9 -44 16 -44 31 0 6 -9 20
-20 29 -11 10 -20 23 -20 30 0 6 -10 19 -21 27 -15 10 -20 21 -16 36 4 17 2
20 -13 15 -26 -8 -80 21 -80 43 0 11 -17 26 -44 39 -25 13 -47 31 -51 44 -10
29 -35 55 -62 63 -15 5 -23 15 -23 30 0 34 -25 52 -39 29 -9 -16 -10 -15 -8 7
2 21 -2 25 -24 25 -15 0 -36 8 -46 18 -11 9 -25 17 -31 17 -6 0 -14 11 -18 25
-6 25 -28 35 -117 51 -21 3 -44 15 -51 26 -10 14 -15 16 -19 6 -4 -10 -10 -8
-21 6 -9 11 -16 14 -16 8 0 -16 -25 -15 -42 1 -29 27 -143 67 -208 72 -62 6
-123 15 -128 20 -3 3 -11 -3 -18 -13 -13 -16 -13 -16 -14 2 0 15 -3 16 -14 7
-8 -6 -18 -11 -22 -10 -5 1 -11 0 -14 -1 -8 -4 -159 -12 -204 -11 -22 0 -47 8
-57 17 -16 14 -18 14 -24 -5 -7 -24 -36 -30 -89 -18 -22 4 -42 4 -45 -1 -3 -4
-23 -8 -43 -7 -27 1 -38 -3 -38 -13 0 -10 -8 -13 -24 -10 -15 3 -27 0 -30 -8
-3 -8 -13 -14 -22 -14 -10 0 -14 -3 -11 -7 8 -7 -58 -33 -85 -33 -9 0 -24 -7
-33 -16 -8 -9 -22 -13 -30 -10 -9 3 -15 0 -15 -8 0 -12 -85 -56 -108 -56 -5 0
-17 -9 -27 -20 -10 -11 -24 -20 -31 -20 -17 0 -55 -50 -47 -63 4 -6 0 -8 -10
-4 -10 4 -17 1 -17 -6 0 -7 -16 -19 -35 -26 -19 -7 -35 -18 -35 -26 0 -8 -4
-17 -10 -20 -6 -4 -7 1 -3 11 7 20 -2 16 -54 -23 -20 -14 -30 -29 -27 -38 4
-8 1 -15 -6 -15 -15 0 -35 -21 -36 -40 -1 -8 -5 -23 -9 -33 -6 -13 -3 -16 9
-11 11 4 16 1 16 -10 0 -9 -5 -16 -11 -16 -15 0 -39 -26 -39 -44 0 -8 -11 -23
-25 -34 -14 -11 -25 -27 -25 -35 0 -8 -7 -18 -16 -21 -13 -5 -14 -9 -4 -21 12
-15 5 -39 -9 -30 -5 2 -19 -7 -31 -20 -13 -14 -19 -25 -14 -25 5 0 2 -5 -6
-10 -11 -8 -7 -10 19 -8 23 2 40 11 55 30 107 140 229 262 297 299 10 5 30 21
45 36 21 21 28 23 35 12 6 -10 9 -10 9 -1 0 22 20 13 21 -10 0 -23 0 -23 9 -2
12 29 32 36 125 39 109 4 153 11 171 26 18 15 34 -2 34 -38 0 -12 9 -27 21
-34 19 -10 20 -8 14 10 -7 24 -2 26 26 11 10 -6 19 -17 19 -25 0 -18 12 -19
27 -4 8 8 13 8 17 0 4 -6 18 -11 31 -11 18 0 22 -4 18 -20 -3 -11 -1 -20 5
-20 6 0 18 -3 27 -6 13 -5 15 -2 10 19 -10 36 11 42 40 11 19 -20 25 -23 25
-11 0 10 5 14 15 11 10 -4 15 0 16 12 1 23 19 -37 26 -88 3 -23 11 -38 19 -38
8 0 14 5 14 10 0 6 -4 10 -10 10 -5 0 -10 5 -10 10 0 7 6 7 18 2 21 -12 42 -5
42 14 0 8 7 14 15 14 8 0 14 -3 14 -7 -7 -42 9 -53 36 -27 9 9 25 14 35 11 17
-4 19 -1 13 21 -6 25 -5 26 12 12 14 -11 19 -12 22 -2 3 6 9 10 14 6 14 -8 11
-24 -5 -24 -10 0 -12 -7 -8 -22 4 -16 7 -18 10 -8 3 8 12 21 20 29 13 13 14
13 8 -6 -4 -14 -2 -23 9 -26 9 -4 12 -13 8 -23 -5 -14 -3 -15 15 -5 11 6 32
11 46 11 14 0 27 4 30 9 3 4 22 11 43 14 30 5 45 1 74 -18 38 -25 49 -24 49 6
0 23 37 14 51 -13 5 -10 14 -16 20 -13 5 4 9 -1 9 -9 0 -22 22 -20 54 5 23 18
30 19 60 8 19 -7 33 -16 30 -21 -6 -9 8 -10 30 -2 9 3 16 12 16 19 0 14 35 26
55 19 8 -3 18 -19 24 -35 5 -16 15 -29 20 -29 6 0 11 -7 11 -15 0 -8 7 -15 16
-15 11 0 14 5 10 16 -5 12 -2 15 11 9 46 -17 76 -18 85 -2 12 23 30 21 51 -3
9 -11 25 -21 34 -21 10 -1 23 -2 28 -4 6 -1 16 -3 23 -3 7 -1 11 -6 8 -10 -3
-5 7 -15 22 -22 42 -21 122 -102 122 -123 0 -15 3 -17 13 -8 20 16 29 0 11
-20 -11 -12 -12 -19 -4 -24 7 -4 17 -1 22 6 7 10 7 7 3 -9 -4 -15 -2 -24 9
-28 8 -3 12 -12 10 -19 -3 -7 4 -22 16 -32 26 -25 35 -63 14 -63 -8 0 -14 -4
-14 -10 0 -5 5 -10 11 -10 6 0 9 -7 5 -15 -3 -8 0 -15 6 -15 7 0 6 -5 -2 -15
-10 -13 -10 -19 4 -34 14 -16 15 -21 3 -32 -23 -24 -28 -50 -12 -72 21 -30 19
-46 -6 -40 -17 5 -20 2 -17 -18 2 -18 -2 -24 -17 -25 -49 -2 -51 -4 -35 -14 8
-5 25 -7 37 -3 17 4 23 1 23 -12 0 -9 -9 -19 -19 -22 -11 -3 -17 -11 -15 -18
3 -7 -2 -15 -11 -19 -9 -3 -13 -10 -10 -16 4 -6 11 -8 16 -5 5 4 9 -1 9 -9 0
-9 -7 -16 -16 -16 -9 0 -14 -6 -11 -12 2 -7 8 -12 13 -11 15 2 35 -25 24 -32
-6 -3 -10 -1 -10 6 0 10 -3 10 -12 1 -17 -17 -25 -15 -31 9 -3 12 -10 18 -15
15 -15 -9 -2 -46 17 -46 30 -1 63 -35 59 -61 -2 -13 -9 -23 -16 -21 -10 2 -11
-7 -6 -35 6 -34 5 -37 -9 -25 -20 17 -84 6 -96 -16 -13 -23 -114 -21 -139 2
-25 21 -48 20 -64 -3 -10 -14 -18 -17 -28 -10 -12 7 -11 9 5 9 29 0 5 18 -30
21 -16 2 -40 -3 -53 -10 -12 -6 -32 -9 -42 -6 -14 4 -20 2 -20 -8 0 -9 -10
-15 -22 -15 -13 0 -54 -3 -93 -7 -38 -3 -79 -6 -90 -6 -43 -1 -63 -10 -68 -29
-5 -21 -47 -29 -47 -9 0 8 -5 7 -15 -1 -9 -7 -18 -10 -22 -7 -3 4 -12 -1 -19
-11 -12 -15 -15 -15 -24 -2 -9 12 -10 11 -5 -7 5 -18 -1 -24 -35 -39 -22 -10
-40 -22 -40 -27 0 -5 -13 -7 -30 -4 -22 5 -32 2 -39 -11 -8 -15 -11 -14 -20
10 -12 32 -34 48 -30 22 4 -31 -12 -74 -28 -74 -8 0 -11 5 -8 10 3 6 -1 10
-11 10 -13 0 -14 -3 -5 -14 6 -7 9 -21 5 -30 -3 -9 -1 -16 5 -16 6 0 10 3 9 8
-2 4 2 9 7 12 6 3 11 -5 13 -17 2 -16 -2 -23 -13 -23 -9 0 -13 -5 -9 -11 3 -6
18 -8 33 -5 14 3 20 3 14 0 -21 -9 -15 -34 8 -34 12 0 19 -5 17 -12 -3 -7 1
-37 8 -67 14 -58 8 -145 -8 -135 -6 4 -5 -4 2 -16 6 -12 13 -59 14 -103 1 -45
6 -98 9 -117 4 -19 9 -48 11 -64 3 -16 9 -33 15 -39 6 -6 11 -21 11 -33 0 -14
8 -25 20 -29 12 -4 29 -27 41 -56 12 -27 25 -49 30 -49 5 0 9 -5 9 -11 0 -5
-4 -7 -10 -4 -5 3 -10 -1 -10 -9 0 -9 7 -16 15 -16 11 0 15 -11 15 -41 0 -24
-4 -38 -10 -34 -5 3 -10 2 -10 -4 0 -5 5 -13 11 -16 6 -5 8 -22 4 -48 -6 -34
-5 -39 9 -34 9 4 16 2 16 -3 0 -6 -7 -10 -15 -10 -8 0 -15 -6 -15 -12 0 -7
-18 -21 -40 -30 -37 -15 -40 -15 -40 0 0 10 -3 13 -8 6 -12 -17 -96 -54 -125
-54 -27 0 -37 -15 -15 -22 6 -2 -6 -4 -28 -5 -21 0 -60 -3 -86 -7 -30 -5 -48
-3 -53 4 -4 7 -11 8 -18 1 -12 -9 -61 -15 -111 -12 -24 1 -27 3 -16 16 11 13
8 15 -22 15 -19 0 -39 5 -46 12 -9 9 -12 8 -12 -6 0 -14 -7 -17 -33 -15 -18 2
-37 0 -43 -3 -5 -4 -33 -10 -61 -14 -44 -5 -56 -12 -82 -45 -38 -46 -38 -65
-5 -129 50 -95 92 -116 181 -91 20 6 35 6 38 0 4 -5 14 -5 27 2 16 9 19 8 15
-3 -2 -7 1 -24 9 -38 17 -34 35 -92 30 -98 -3 -2 -11 12 -20 31 -8 20 -23 40
-34 46 -26 14 -43 14 -19 0 22 -13 50 -67 41 -81 -4 -7 -3 -8 4 -4 8 5 11 -5
8 -33 -2 -23 0 -44 5 -47 5 -3 9 -14 9 -26 0 -16 3 -18 14 -9 11 10 16 8 21
-8 3 -10 12 -25 21 -32 11 -9 10 -1 -5 34 -11 25 -17 47 -14 50 2 3 -5 15 -16
26 -24 24 -30 51 -7 31 11 -8 20 -9 33 -1 16 9 16 10 -5 11 -13 0 -20 4 -17
10 4 6 -1 25 -10 42 -10 21 -12 34 -5 36 6 2 1 15 -10 29 -25 32 -25 38 0 40
21 2 27 -12 10 -22 -7 -4 -3 -14 10 -25 11 -10 16 -20 11 -22 -7 -2 -7 -8 -1
-18 14 -21 29 3 23 34 -7 33 10 39 52 22 34 -14 49 -46 22 -46 -9 0 -12 -11
-9 -36 3 -26 1 -35 -7 -30 -7 5 -11 -6 -11 -33 0 -23 5 -40 10 -38 6 1 19 -16
30 -38 16 -33 18 -35 13 -11 -4 22 -2 28 8 24 8 -2 18 -14 23 -25 10 -21 48
-26 73 -10 6 4 19 4 28 1 15 -6 15 -4 3 15 -11 18 -11 23 2 31 9 6 17 5 21 -1
3 -6 10 -10 15 -9 12 2 34 -77 27 -97 -4 -11 -2 -14 5 -9 13 8 15 -6 6 -41 -6
-21 -54 -39 -54 -20 0 6 -6 4 -12 -5 -21 -26 -68 -28 -137 -6 -56 18 -70 19
-125 9 -33 -7 -76 -15 -93 -18 -18 -3 -33 -9 -33 -14 0 -5 -11 -9 -24 -9 -14
0 -28 -5 -31 -10 -3 -5 -16 -10 -29 -10 -19 0 -22 4 -18 30 2 17 8 33 13 36 5
3 3 13 -3 23 -12 20 -5 51 12 51 5 0 10 -9 10 -21 0 -11 4 -18 9 -14 6 3 14
-3 20 -12 8 -15 10 -16 15 -3 13 43 14 44 15 23 1 -12 5 -24 9 -27 4 -2 7 5 7
17 -2 28 -29 89 -37 82 -3 -3 -8 8 -11 25 -4 17 -16 40 -26 52 l-20 21 -10
-26 c-6 -15 -15 -27 -21 -27 -5 0 -10 -5 -10 -11 0 -6 9 -8 21 -4 19 6 21 4
15 -16 -4 -13 -8 -30 -8 -38 -1 -9 -7 -7 -19 8 -23 28 -36 21 -49 -29 -6 -22
-16 -40 -22 -40 -6 0 -16 -7 -22 -16 -16 -21 -46 -7 -46 22 0 34 -29 28 -43
-8 -9 -26 -26 -22 -38 9 -7 20 -12 24 -18 14 -7 -11 -10 -11 -14 0 -4 11 -9
10 -21 -5 -12 -14 -19 -17 -27 -9 -8 8 -8 13 0 17 14 9 14 26 1 26 -16 0 -29
-43 -18 -57 11 -14 -10 -53 -29 -53 -21 0 -15 18 8 25 15 5 18 10 10 18 -8 8
-14 8 -23 -1 -17 -17 -33 -15 -19 2 9 11 7 15 -9 19 -15 4 -20 1 -18 -11 2
-10 -6 -18 -21 -22 -24 -5 -44 -45 -37 -73 1 -7 1 -9 -1 -4 -8 13 -23 8 -23
-8 0 -11 -9 -14 -37 -11 -21 3 -30 2 -20 0 9 -3 17 -10 17 -15 0 -5 6 -9 14
-9 7 0 16 -11 18 -24 4 -18 -3 -31 -23 -48 -34 -27 -36 -44 -9 -58 11 -6 20
-15 20 -19 0 -5 -9 -7 -20 -4 -26 7 -26 -14 -1 -22 11 -3 22 -13 25 -21 3 -8
10 -12 16 -9 5 3 10 2 10 -4 0 -5 -8 -11 -17 -14 -16 -3 -16 -5 2 -12 21 -9
55 -43 55 -55 0 -3 15 -14 34 -23 l34 -16 26 33 c14 19 22 36 19 40 -4 3 -4 6
-1 6 3 0 15 -14 26 -32 l20 -32 -4 42 c-3 31 0 42 10 42 8 0 16 -6 19 -12 2
-7 7 -10 11 -7 4 4 0 14 -9 22 -17 18 -20 31 -5 22 6 -4 22 1 37 10 14 10 22
12 18 4 -5 -8 -4 -10 3 -5 7 4 12 16 12 28 0 13 5 18 14 15 9 -4 16 3 20 18 6
23 9 24 64 20 31 -3 65 -8 75 -11 11 -4 17 0 17 10 0 24 17 19 23 -6 4 -12 9
-19 13 -15 4 4 13 -1 20 -11 13 -16 13 -16 14 2 0 10 -8 25 -17 33 -17 14 -17
14 0 9 10 -3 17 0 17 8 0 9 16 13 55 13 36 0 55 -4 55 -12 0 -6 7 -12 15 -12
8 0 15 4 15 9 0 4 -4 8 -10 8 -5 0 -10 4 -10 10 0 11 128 12 135 0 3 -4 22
-11 42 -15 21 -4 47 -12 58 -18 11 -6 27 -11 35 -12 10 0 14 -8 12 -22 -2 -13
2 -23 7 -23 6 0 11 10 12 23 0 12 3 16 6 10 2 -7 12 -13 21 -13 13 0 14 -2 4
-9 -14 -8 -13 -32 2 -42 5 -4 5 -12 1 -18 -5 -9 -10 -9 -21 0 -11 9 -19 8 -34
-6 -19 -17 -21 -17 -40 0 -11 10 -17 22 -14 26 3 5 0 9 -5 9 -6 0 -11 -7 -11
-16 0 -11 -6 -14 -22 -8 -26 7 -41 26 -29 34 4 3 8 15 8 27 1 15 -3 20 -13 16
-8 -3 -14 -11 -14 -19 0 -8 -4 -14 -10 -14 -5 0 -10 7 -10 16 0 13 -3 14 -14
5 -16 -13 -59 -6 -93 17 -15 9 -23 10 -23 3 0 -14 87 -55 118 -56 21 0 41 -19
42 -37 0 -5 -9 -8 -20 -8 -11 0 -20 -7 -20 -15 0 -15 -24 -16 -46 -3 -6 4 -35
3 -65 -1 -38 -6 -56 -5 -62 3 -8 12 -37 -19 -37 -41 0 -18 -36 -17 -43 1 -3 8
-1 17 6 20 9 3 8 5 -1 5 -17 1 -28 -29 -13 -38 7 -5 9 -19 5 -39 -9 -43 -24
-51 -19 -10 2 18 0 40 -5 48 -5 8 -10 13 -11 10 0 -3 -2 -25 -4 -49 -3 -25 -8
-47 -13 -50 -12 -8 -23 -41 -13 -41 4 0 6 -13 3 -28 -5 -39 20 -57 75 -55 24
1 41 -3 37 -8 -3 -5 1 -12 10 -15 8 -3 12 -12 9 -20 -5 -14 14 -14 64 1 7 2
20 -3 29 -12 9 -10 19 -12 22 -7 10 14 52 15 52 2 0 -6 6 -6 15 2 12 10 15 9
15 -6 0 -14 3 -15 12 -6 18 18 79 15 94 -5 12 -17 13 -17 14 3 0 21 17 34 45
34 7 0 20 -15 28 -32 12 -25 17 -29 22 -17 5 14 10 12 36 -10 16 -14 29 -31
29 -38 0 -7 8 -13 17 -13 13 0 14 3 6 11 -8 8 -8 18 -1 35 11 24 28 33 28 14
0 -5 -4 -10 -10 -10 -5 0 -10 -7 -10 -16 0 -12 4 -14 13 -7 6 6 27 9 45 8 21
-2 35 2 41 13 8 14 11 14 35 -2 15 -9 31 -14 35 -11 12 7 41 -4 41 -16 0 -4
-7 -6 -15 -3 -8 4 -15 3 -15 -2 0 -13 53 -64 67 -64 7 0 13 -5 13 -11 0 -6 7
-9 15 -5 12 4 15 -2 14 -27 -1 -18 -3 -24 -6 -14 -5 19 -18 22 -28 7 -4 -6
-21 -8 -40 -4 -19 3 -40 2 -47 -2 -9 -6 -4 -10 16 -14 16 -3 31 -11 32 -18 1
-7 0 -8 -3 -2 -2 5 -15 7 -27 4 -16 -4 -25 0 -29 10 -4 9 -14 16 -23 16 -10 0
-14 -5 -10 -15 7 -18 7 -18 -37 0 -19 8 -36 13 -39 12 -2 -1 4 5 14 15 23 20
13 48 -16 47 -16 -1 -17 -2 -3 -6 24 -6 22 -23 -4 -23 -11 0 -17 -4 -14 -10 4
-6 -1 -7 -11 -3 -13 5 -15 2 -10 -18 6 -22 6 -23 -7 -6 -9 11 -22 15 -33 11
-14 -4 -16 -3 -5 4 11 8 5 18 -28 51 -22 22 -44 41 -49 41 -4 0 -13 -10 -21
-21 -9 -16 -10 -24 -2 -29 7 -3 9 -13 6 -22 -4 -10 4 -19 26 -29 l33 -13 -30
-8 c-17 -4 -30 -4 -32 2 -8 22 -24 8 -20 -15 4 -18 2 -23 -6 -17 -10 8 -93 8
-100 1 -11 -13 -16 -49 -7 -49 6 0 11 -8 10 -17 0 -10 -3 -13 -5 -8 -7 17 -72
5 -77 -14 -3 -11 -5 -9 -6 7 -1 13 -7 22 -17 22 -10 0 -14 -6 -10 -15 8 -21
-10 -19 -33 4 -14 14 -16 22 -8 30 6 6 7 11 3 11 -5 0 -15 -8 -22 -17 -12 -17
-13 -17 -26 0 -13 17 -15 16 -36 -12 -15 -21 -18 -31 -10 -32 7 0 3 -4 -9 -9
-19 -8 -29 -3 -59 24 -23 21 -34 38 -29 46 5 8 3 11 -6 8 -8 -3 -13 -12 -11
-22 3 -18 -14 -22 -20 -5 -2 6 -16 12 -31 12 -15 0 -27 3 -27 8 0 5 -4 9 -10
9 -17 0 -11 -25 10 -40 11 -8 20 -24 20 -35 -1 -20 -1 -20 -12 0 -6 10 -21 29
-32 41 -12 12 -27 30 -34 40 -7 11 -10 13 -6 5 4 -8 7 -27 6 -42 0 -21 4 -29
16 -29 10 -1 4 -7 -13 -14 -33 -14 -60 -3 -51 21 3 7 -1 13 -8 13 -10 0 -12 7
-9 23 5 21 5 21 -9 3 -14 -18 -44 -14 -33 4 11 18 -6 37 -31 32 -31 -6 -32 15
-1 29 19 8 19 9 -7 4 -24 -5 -34 0 -58 25 -15 17 -28 36 -28 41 0 6 -5 7 -11
4 -6 -4 -8 -13 -5 -21 3 -7 1 -16 -4 -19 -6 -4 -10 1 -10 9 0 11 -14 18 -42
22 -37 6 -39 8 -23 21 17 12 17 13 2 13 -11 0 -20 11 -23 30 -7 33 -28 39 -43
13 -6 -10 -11 -16 -12 -13 -3 16 -9 61 -13 98 -4 34 -1 42 12 43 15 0 14 1 -1
8 -10 4 -18 9 -17 11 5 16 -16 40 -34 40 -20 -1 -20 -1 4 -15 23 -12 23 -14 6
-21 -24 -9 -38 13 -31 52 5 26 2 33 -17 39 -19 6 -20 8 -6 12 9 2 27 -1 39 -7
33 -18 43 3 14 30 -17 16 -25 19 -25 10 0 -9 -6 -6 -15 7 -9 12 -14 26 -13 30
2 4 -1 9 -7 11 -5 1 -10 -3 -10 -9 0 -7 -9 -15 -20 -20 -30 -11 -35 -11 -35 6
0 8 7 15 16 15 8 0 13 4 9 9 -3 5 -1 12 5 16 6 4 8 11 5 16 -4 5 8 9 25 9 17
0 29 4 26 9 -7 10 -73 8 -84 -3 -3 -4 0 -11 8 -17 13 -8 11 -12 -9 -28 -14
-10 -32 -16 -40 -13 -10 4 -11 7 -3 10 7 2 17 12 22 23 10 17 7 19 -22 15 -20
-2 -33 -9 -33 -17 0 -8 -9 -17 -19 -22 -19 -7 -19 -8 0 -26 10 -10 24 -16 29
-14 12 4 14 -56 2 -74 -12 -19 3 -41 34 -48 16 -4 29 -13 29 -21 0 -8 7 -14
15 -14 14 0 62 -86 53 -95 -8 -8 -48 35 -48 50 0 8 -7 15 -15 15 -9 0 -20 12
-25 26 -6 14 -14 22 -20 19 -16 -10 -12 -21 15 -46 30 -29 32 -43 4 -34 -19 6
-20 4 -14 -26 4 -18 20 -50 36 -72 16 -22 29 -46 29 -53 0 -7 13 -23 28 -36
16 -13 39 -45 52 -71 13 -26 36 -60 52 -75 30 -29 36 -47 14 -39 -8 3 -16 1
-18 -5 -3 -7 -18 -7 -48 -1 -34 7 -44 13 -42 26 2 12 -4 17 -23 17 -14 0 -25
6 -25 13 0 24 -32 78 -43 74 -7 -2 -19 3 -27 12 -13 13 -15 12 -18 -8 -3 -15
-8 -21 -19 -17 -8 3 -19 6 -24 6 -5 0 -9 7 -9 15 0 8 -4 15 -10 15 -5 0 -9
-12 -8 -27 2 -14 -2 -28 -8 -30 -17 -6 -3 -65 17 -70 10 -3 15 -11 13 -18 -3
-7 2 -15 10 -18 9 -4 13 -13 10 -22 -4 -10 2 -18 17 -24 18 -7 19 -10 7 -10
-22 -1 -24 -21 -2 -21 10 0 14 -6 11 -14 -3 -7 0 -13 6 -13 36 1 49 -4 44 -17
-3 -8 6 -25 21 -38 62 -57 113 -118 98 -118 -9 0 -16 -7 -16 -15 0 -8 -5 -15
-11 -15 -6 0 -9 6 -7 13 7 17 -48 61 -58 46 -3 -6 0 -15 7 -20 8 -5 10 -9 4
-9 -5 0 -27 19 -48 42 -21 24 -33 33 -27 21 16 -34 147 -168 215 -221 66 -52
163 -111 415 -254 49 -28 81 -59 78 -76 -2 -8 10 -22 26 -31 16 -9 32 -23 34
-30 3 -9 -4 -8 -22 4 -15 10 -47 18 -71 19 -25 0 -45 4 -45 9 0 4 5 7 11 7 5
0 7 5 3 11 -3 6 -17 8 -30 5 -17 -5 -24 -2 -24 9 0 19 -14 19 -31 -1 -8 -10
-9 -18 -3 -22 6 -4 13 -15 17 -24 4 -12 2 -15 -9 -11 -7 3 -14 9 -14 14 0 6
-9 5 -20 -1 -25 -13 -17 -30 13 -30 12 0 29 -5 37 -10 10 -6 3 -7 -24 -3 -54
9 -40 -11 24 -32 28 -9 50 -21 50 -26 0 -5 8 -9 18 -9 10 0 22 -4 27 -9 6 -5
66 -33 135 -61 69 -28 129 -55 134 -60 6 -6 18 -10 28 -10 17 0 44 -37 34 -47
-3 -3 11 -15 32 -26 20 -11 39 -22 42 -26 3 -3 16 -12 30 -19 14 -7 36 -29 50
-48 14 -19 34 -39 45 -45 57 -27 107 -60 139 -91 20 -20 56 -43 81 -52 24 -10
47 -26 50 -36 3 -10 12 -21 20 -24 8 -3 15 -12 15 -21 0 -8 4 -15 9 -15 14 0
42 -49 44 -76 1 -14 8 -29 15 -33 12 -7 12 -12 0 -30 -11 -18 -11 -23 1 -30
19 -12 7 -39 -24 -51 -32 -12 -32 -27 0 -42 30 -14 38 -7 38 32 0 34 22 41 30
9 6 -23 27 -17 27 7 0 16 16 19 25 4 3 -5 17 -10 30 -10 13 0 32 -8 42 -18 10
-11 27 -22 38 -26 16 -6 17 -9 5 -17 -12 -9 -11 -10 4 -5 12 4 25 -1 36 -14
10 -12 21 -17 24 -11 10 16 43 1 55 -25 6 -14 19 -24 31 -24 31 0 98 -30 96
-43 -4 -30 -30 -41 -151 -64 -11 -2 -100 -6 -197 -9 -158 -4 -177 -3 -172 11
8 19 -6 19 -31 1 -22 -16 -119 -12 -255 9 -72 12 -92 15 -113 19 -43 9 -232
58 -252 65 -11 5 -42 16 -70 25 -336 118 -529 226 -680 382 -27 28 -75 84
-105 124 -30 39 -70 90 -88 112 -40 50 -134 234 -161 319 -23 68 -51 237 -51
303 0 28 9 54 27 81 35 53 33 51 42 36 6 -10 10 -9 14 4 4 9 3 13 -3 10 -16
-10 -12 3 15 44 14 21 35 62 45 90 19 49 19 56 5 139 -9 48 -18 99 -21 112 -3
14 -9 59 -14 102 -13 114 -37 235 -82 408 -22 85 -42 165 -45 178 -4 15 -11
21 -20 18 -8 -3 -11 -1 -8 4 11 18 -17 11 -31 -7 -13 -17 -13 -17 -14 0 0 27
-17 20 -23 -11 -5 -25 -41 -48 -92 -58 -125 -24 -163 -23 -267 10 -27 8 -48
12 -48 9 0 -3 -6 0 -14 6 -10 9 -34 9 -88 3 -69 -9 -214 -2 -298 14 -19 4 -72
8 -117 9 -70 2 -133 16 -208 46 -11 4 -31 11 -45 14 -14 4 -35 18 -46 32 -20
23 -25 25 -54 14 -37 -13 -90 -15 -90 -3 0 12 -96 52 -126 52 -42 0 -98 18
-121 38 -11 9 -39 45 -63 80 -74 109 -97 60 -45 -92 34 -99 80 -160 213 -283
64 -60 129 -120 144 -136 36 -36 63 -34 159 8 92 40 105 42 114 15 8 -26 -41
-97 -105 -151 -27 -22 -53 -54 -59 -69 -5 -16 -30 -59 -56 -97 -25 -37 -50
-75 -56 -83 -5 -8 -23 -37 -39 -65 -17 -27 -34 -57 -39 -65 -56 -92 -80 -146
-86 -188 -10 -73 -13 -262 -5 -267 4 -3 18 3 31 13 13 10 32 21 41 25 10 3 20
22 23 44 12 72 36 146 58 177 32 45 66 76 84 76 9 0 21 7 27 16 11 14 14 14
35 -3 19 -16 21 -22 12 -46 -6 -15 -17 -30 -26 -33 -8 -3 -12 -11 -8 -17 3 -5
-1 -15 -9 -21 -8 -6 -23 -43 -32 -81 -23 -94 -64 -185 -94 -209 -19 -15 -23
-26 -19 -50 12 -75 90 -198 116 -182 13 8 51 -24 62 -51 6 -17 14 -23 25 -19
9 3 27 3 40 0 21 -5 25 -12 22 -38 -3 -28 -8 -33 -55 -48 -29 -10 -66 -20 -83
-23 -17 -3 -50 -12 -73 -21 -23 -8 -118 -40 -212 -70 -93 -30 -177 -59 -185
-63 -10 -5 -22 -4 -32 3 -14 10 -13 18 8 81 13 39 24 81 24 94 0 22 -1 23 -17
9 -25 -22 -112 -39 -135 -27 -10 5 -61 14 -115 19 -54 6 -122 13 -151 16 -42
5 -64 1 -102 -15 -27 -12 -60 -21 -75 -21 -27 0 -81 23 -87 38 -1 4 -20 17
-40 29 l-37 21 -7 -65 c-5 -52 -2 -83 16 -152 34 -132 34 -130 19 -135 -68
-20 -118 -44 -150 -73 -42 -38 -93 -120 -105 -168 -10 -43 -19 -52 -66 -59
-22 -4 -46 -10 -52 -14 -31 -19 -48 -5 -21 18 9 8 15 27 14 49 -1 45 15 141
36 206 9 28 20 68 25 90 5 22 15 68 23 102 10 44 11 65 4 72 -8 8 -6 11 6 11
10 0 17 6 16 12 -1 7 1 20 5 28 3 9 8 33 9 55 2 22 10 54 19 70 9 18 16 57 16
98 0 58 -3 71 -24 94 -13 14 -24 21 -24 14 0 -22 -30 -11 -36 14 -3 14 -10 23
-14 20 -5 -3 -10 0 -12 6 -4 12 -44 -5 -61 -26 -5 -5 -5 1 -2 14 5 16 4 21 -4
17 -6 -4 -11 -18 -11 -32 0 -17 -5 -24 -20 -24 -11 0 -20 -4 -20 -10 0 -24
-20 -7 -21 18 0 24 -1 25 -9 7 -5 -11 -9 -408 -9 -882 l-1 -863 4160 0 4160 0
0 974 c0 639 -3 977 -10 981 -5 3 -10 -1 -10 -10 0 -9 -4 -13 -10 -10 -5 3
-10 17 -10 31 0 17 -5 24 -19 24 -25 0 -36 17 -22 34 8 10 7 21 -4 42 -8 16
-15 23 -15 17 0 -7 -4 -13 -10 -13 -5 0 -10 14 -10 31 0 29 -2 30 -29 24 -26
-6 -29 -4 -24 14 3 13 1 21 -8 21 -10 0 -10 3 -1 12 20 20 14 30 -15 26 -23
-2 -30 2 -38 26 -12 37 -32 45 -37 15 -6 -42 -28 -34 -28 10 0 24 -5 41 -11
41 -6 0 -9 -9 -6 -19 5 -22 -17 -47 -48 -53 -28 -5 -31 29 -5 50 l23 18 -27
29 -26 28 6 -31 c4 -21 3 -32 -5 -32 -6 0 -11 9 -11 20 0 11 -3 20 -8 20 -4 0
-12 10 -17 22 -6 12 -17 24 -25 26 -12 4 -13 2 -2 -9 25 -27 14 -37 -35 -31
-27 2 -50 6 -52 8 -8 7 9 17 32 20 12 1 25 3 30 3 4 1 1 11 -8 24 -8 13 -12
26 -9 30 4 3 -10 1 -30 -4 -37 -10 -96 4 -96 23 0 5 -7 8 -15 8 -18 0 -20 26
-2 33 9 3 9 8 1 17 -8 8 -14 9 -18 1 -4 -6 -11 -11 -17 -11 -14 0 -11 27 4 34
24 10 -26 36 -70 36 -24 0 -43 5 -43 10 0 6 19 10 43 10 35 1 39 2 24 11 -11
6 -32 9 -48 7 l-29 -4 3 53 c2 33 0 53 -7 53 -6 0 -5 4 2 9 11 6 10 10 -5 16
-17 7 -17 8 2 15 20 8 20 8 1 16 -13 5 -21 3 -24 -4 -2 -7 -11 -12 -19 -12
-12 0 -13 3 -4 14 9 11 9 15 -1 19 -7 3 -2 6 11 6 20 1 21 3 11 16 -16 19 -40
19 -40 0 0 -8 -4 -15 -9 -15 -5 0 -7 10 -4 21 5 19 11 21 49 16 24 -2 44 -1
44 4 0 5 7 9 16 9 35 0 -1 20 -39 21 -29 2 -34 3 -15 6 17 3 25 9 22 17 -3 9
7 18 25 24 31 11 39 26 21 37 -5 3 -10 11 -10 18 0 8 3 8 12 -1 20 -20 37 -14
31 11 -3 12 -10 28 -16 35 -5 7 -7 16 -3 20 4 4 12 -1 17 -10 8 -15 15 -12 53
25 37 37 41 44 27 55 -13 10 -12 12 6 12 16 0 22 8 27 42 7 44 56 108 82 108
7 0 17 6 21 13 4 8 37 28 73 46 36 18 76 43 90 56 14 12 50 35 80 50 30 14 75
39 100 55 25 16 52 29 61 29 9 1 19 8 23 16 3 8 13 15 23 15 10 1 28 9 41 19
l22 19 0 356 c0 352 0 356 -20 344 -13 -8 -16 -16 -10 -22 15 -15 12 -36 -5
-36 -8 0 -15 -7 -15 -15 0 -8 -5 -15 -11 -15 -8 0 -7 -5 1 -15 7 -9 10 -19 6
-22 -4 -4 -11 -1 -16 7 -7 11 -10 8 -15 -12 -4 -14 -15 -28 -25 -31 -10 -3
-20 -15 -22 -28 -2 -17 -9 -23 -21 -21 -16 3 -17 0 -7 -18 6 -12 9 -26 6 -33
-3 -9 -5 -9 -5 1 -1 18 -18 15 -41 -8 -11 -11 -20 -25 -20 -30 0 -5 -7 -10
-15 -10 -8 0 -21 -15 -30 -34 -11 -23 -22 -33 -31 -29 -9 3 -14 -2 -14 -17 0
-11 5 -18 10 -15 6 3 10 2 10 -4 0 -6 -12 -8 -30 -4 -23 4 -30 2 -30 -11 0 -9
-7 -16 -16 -16 -8 0 -12 -4 -9 -10 3 -5 -5 -12 -19 -16 -13 -3 -27 -12 -30
-20 -3 -8 -15 -14 -26 -14 -13 0 -20 -7 -20 -20 0 -11 -6 -19 -12 -17 -8 1
-14 -10 -16 -25 -3 -26 -22 -41 -22 -18 0 6 -4 10 -10 10 -5 0 -10 -9 -10 -20
0 -11 -7 -20 -15 -20 -9 0 -20 -11 -25 -25 -6 -17 -17 -25 -32 -25 -13 0 -29
-9 -36 -20 -7 -11 -19 -20 -27 -20 -8 0 -15 -4 -15 -10 0 -5 -5 -10 -11 -10
-6 0 -9 6 -6 14 4 10 0 12 -14 9 -14 -4 -19 0 -19 14 0 11 -9 28 -19 37 -11
10 -24 29 -29 44 -52 140 -67 178 -160 392 -16 37 -108 235 -121 260 -54 104
-142 240 -245 378 -42 56 -76 106 -76 111 0 4 -8 15 -19 25 -10 9 -28 37 -41
61 -13 24 -31 52 -41 61 -44 40 -10 130 95 248 35 39 82 98 106 131 24 33 54
71 67 85 13 14 23 33 23 43 0 10 4 16 9 13 5 -3 14 1 21 9 7 8 23 15 36 15 13
0 24 5 24 10 0 6 7 10 15 10 8 0 15 5 15 10 0 17 22 11 42 -12 16 -19 21 -20
28 -8 7 12 13 11 33 -8 13 -12 26 -20 29 -16 4 3 22 1 42 -4 20 -6 36 -7 36
-3 0 4 16 5 36 3 24 -3 34 -8 30 -18 -3 -7 -1 -16 3 -19 5 -3 11 2 15 10 4 12
11 13 32 4 15 -5 33 -8 39 -5 7 2 18 0 26 -5 11 -7 11 -9 -3 -9 -10 0 -18 -4
-18 -10 0 -5 18 -10 41 -10 25 0 52 -8 70 -21 16 -11 33 -17 39 -14 5 3 10 -1
10 -9 0 -9 9 -16 21 -16 11 0 17 -4 14 -10 -3 -5 3 -11 14 -11 24 -2 20 -1 89
-18 32 -8 52 -18 52 -27 0 -8 10 -14 26 -14 21 0 25 -4 20 -17 -5 -16 -5 -16
6 -2 15 18 52 19 70 1 7 -7 25 -12 41 -12 25 0 28 -2 17 -15 -10 -13 -9 -15
10 -15 15 0 20 -5 17 -14 -4 -9 0 -12 13 -9 11 3 28 -5 41 -18 13 -13 24 -18
26 -12 5 14 43 -16 43 -33 0 -7 7 -14 15 -18 13 -5 15 178 15 1604 l0 1610
-880 0 c-612 0 -881 -4 -886 -11 -3 -6 -1 -16 5 -22 17 -17 13 -27 -9 -27 -14
0 -20 7 -20 21 0 15 -4 19 -16 15 -9 -3 -21 -6 -27 -6 -8 -1 -6 -5 3 -13 19
-15 23 -49 7 -59 -7 -5 -3 -8 10 -8 13 0 22 5 20 11 -1 6 4 14 11 16 27 10 10
-26 -18 -39 -16 -7 -30 -20 -30 -28 0 -15 42 -40 69 -40 11 0 10 -4 -5 -15
-19 -14 -19 -15 4 -21 14 -4 22 -14 21 -28 0 -11 -3 -15 -6 -8 -7 17 -40 15
-47 -3 -3 -8 -12 -15 -21 -15 -23 0 -18 -27 7 -33 18 -5 19 -8 8 -21 -11 -14
-9 -16 10 -16 26 0 22 -23 -6 -29 -10 -2 -26 -11 -35 -20 -20 -21 -14 -44 9
-33 9 5 31 6 47 2 l30 -6 -42 -19 c-46 -22 -55 -35 -22 -35 12 0 19 -5 16 -12
-2 -7 -10 -12 -16 -10 -7 1 -10 -2 -6 -8 3 -6 11 -8 16 -5 5 4 9 -3 9 -13 0
-22 -36 -37 -43 -18 -3 8 -10 8 -26 -1 -27 -17 -32 -16 -25 1 6 17 -16 33 -25
18 -4 -6 -17 -1 -34 13 -24 22 -25 25 -10 34 10 5 14 13 10 17 -4 5 -17 3 -27
-4 -25 -16 -30 -15 -30 3 0 8 -9 19 -19 24 -10 6 -24 25 -31 43 -7 18 -14 27
-17 20 -3 -6 -9 -10 -13 -7 -5 3 -7 12 -3 20 3 10 -1 15 -11 15 -9 0 -25 13
-34 30 -9 16 -23 30 -29 30 -7 0 -13 4 -13 9 0 5 6 12 13 14 6 3 -2 6 -19 6
-22 1 -33 7 -36 19 -3 10 -21 26 -41 35 -19 9 -37 24 -41 32 -3 8 -10 15 -16
15 -6 0 -16 4 -23 10 -7 5 -28 22 -47 37 -19 16 -67 49 -106 76 l-71 47 -201
0 c-187 0 -201 -1 -207 -19z m1283 -8 c-10 -2 -26 -2 -35 0 -10 3 -2 5 17 5
19 0 27 -2 18 -5z m-18 -148 c0 -8 -4 -15 -10 -15 -5 0 -10 7 -10 15 0 8 5 15
10 15 6 0 10 -7 10 -15z m-850 -307 c-1 -28 -2 -30 -11 -15 -6 10 -8 25 -5 33
9 24 16 16 16 -18z m80 -118 c0 -5 7 -7 16 -3 13 5 14 -1 11 -34 -3 -22 -1
-46 3 -53 4 -7 1 -20 -8 -30 -12 -15 -19 -16 -33 -7 -11 7 -19 22 -19 34 0 13
-5 23 -12 23 -9 0 -9 3 0 12 17 17 15 28 -5 28 -15 1 -14 4 6 20 25 22 41 26
41 10z m695 0 c4 -6 -5 -10 -20 -10 -15 0 -24 4 -20 10 3 6 12 10 20 10 8 0
17 -4 20 -10z m-1155 -650 c0 -5 -5 -10 -11 -10 -5 0 -7 5 -4 10 3 6 8 10 11
10 2 0 4 -4 4 -10z m824 -165 l18 -34 -28 -40 c-16 -22 -34 -41 -40 -41 -6 0
-21 11 -33 24 -20 21 -22 31 -16 68 8 48 14 55 54 56 21 0 31 -7 45 -33z
m-2714 -87 c-6 -13 -13 -31 -16 -40 -4 -10 -11 -18 -16 -18 -6 0 -7 8 -3 18 4
9 10 27 12 40 3 12 11 22 19 22 10 0 11 -5 4 -22z m2487 -305 c-4 -3 -2 -12 4
-20 14 -16 1 -17 -36 -3 -31 12 -24 30 12 30 15 0 23 -3 20 -7z m323 -13 c0
-5 -4 -10 -10 -10 -5 0 -10 5 -10 10 0 6 5 10 10 10 6 0 10 -4 10 -10z m-10
-38 c29 -23 19 -72 -15 -72 -30 0 -42 17 -42 58 0 37 21 43 57 14z m-329 -13
c11 -11 19 -23 17 -25 -3 -2 -15 7 -28 21 -28 30 -19 34 11 4z m144 1 c3 -5
-1 -10 -9 -10 -9 0 -16 5 -16 10 0 6 4 10 9 10 6 0 13 -4 16 -10z m-245 -380
c0 -5 -2 -10 -4 -10 -3 0 -8 5 -11 10 -3 6 -1 10 4 10 6 0 11 -4 11 -10z m-55
-160 c-3 -5 -10 -10 -16 -10 -5 0 -9 5 -9 10 0 6 7 10 16 10 8 0 12 -4 9 -10z
m1095 -14 c0 -3 -4 -8 -10 -11 -5 -3 -10 -1 -10 4 0 6 5 11 10 11 6 0 10 -2
10 -4z m84 -41 c-7 -17 21 -21 31 -5 12 19 26 10 20 -12 -4 -13 -3 -18 2 -11
6 8 14 8 33 -2 14 -8 21 -14 16 -15 -6 0 -1 -6 9 -14 22 -16 28 -89 11 -120
-43 -77 -192 -256 -213 -256 -7 0 -13 -7 -13 -15 0 -8 -7 -15 -15 -15 -9 0
-18 -6 -21 -14 -3 -8 -19 -20 -35 -26 -21 -9 -29 -19 -29 -36 0 -17 -8 -27
-25 -34 -13 -5 -34 -21 -47 -35 -12 -14 -28 -25 -35 -25 -7 0 -13 -7 -13 -15
0 -8 -6 -15 -14 -15 -8 0 -22 -7 -31 -16 -9 -9 -19 -14 -22 -10 -3 3 -11 -1
-17 -9 -6 -8 -21 -16 -34 -18 -13 -2 -27 -9 -32 -17 -4 -7 -12 -10 -18 -6 -5
3 -15 -1 -22 -9 -7 -8 -21 -15 -31 -15 -11 0 -19 -5 -19 -11 0 -6 -9 -8 -20
-4 -12 4 -26 2 -33 -3 -7 -5 -23 -12 -35 -15 -20 -5 -23 -2 -19 14 7 25 -9 24
-23 -1 -12 -22 -35 -17 -26 6 3 8 -1 14 -8 14 -13 0 -30 39 -21 49 3 2 5 -1 5
-7 0 -7 7 -12 16 -12 13 0 15 7 11 30 -5 22 -3 30 8 30 20 0 19 9 -2 32 -14
16 -15 23 -5 38 7 11 12 36 12 55 0 24 4 34 11 29 8 -5 10 6 7 35 -2 22 0 41
4 41 5 0 8 16 8 35 0 21 -5 35 -12 35 -9 0 -8 3 2 10 12 7 12 12 0 34 -12 23
-11 28 3 39 12 9 16 24 14 58 -3 38 0 45 13 42 12 -3 16 3 15 24 0 25 4 28 45
34 25 4 50 8 55 9 33 8 33 -4 0 -16 l-40 -13 40 5 c22 4 59 8 83 9 40 3 73 15
41 15 -12 0 -12 2 0 9 9 6 22 6 31 1 11 -6 21 -5 28 2 9 9 12 9 12 0 0 -7 5
-12 10 -12 6 0 10 7 10 15 0 13 3 13 21 3 14 -9 23 -9 25 -3 5 13 74 7 74 -6
0 -5 -12 -9 -27 -10 l-28 -1 25 -8 c27 -9 83 -12 63 -3 -18 7 -16 23 1 23 21
0 30 19 16 35 -6 8 -9 19 -5 25 3 5 -1 10 -9 10 -9 0 -16 8 -16 19 0 14 6 17
24 14 13 -3 27 0 30 6 11 17 26 13 26 -6 1 -17 1 -17 11 0 6 10 17 16 27 13 9
-3 24 -1 32 4 23 15 40 12 34 -5z m-1174 -5 c0 -5 -4 -10 -10 -10 -5 0 -10 5
-10 10 0 6 5 10 10 10 6 0 10 -4 10 -10z m589 -114 c-13 -15 -19 -3 -12 24 6
22 7 22 14 4 3 -10 3 -23 -2 -28z m-1692 -331 c0 -8 -4 -15 -9 -15 -4 0 -8 7
-8 15 0 8 4 15 8 15 5 0 9 -7 9 -15z m3040 -1 c-3 -3 -12 -4 -19 -1 -8 3 -5 6
6 6 11 1 17 -2 13 -5z m-2230 -99 c2 -6 -17 -17 -42 -24 -67 -20 -64 -31 7
-31 60 -1 62 -1 33 -14 l-30 -12 46 -12 c26 -6 57 -21 70 -32 l24 -21 -40 5
c-22 3 -110 14 -195 24 l-155 18 55 14 55 15 -55 6 c-44 5 -47 6 -17 7 20 1
37 6 37 11 0 13 49 31 92 33 21 2 38 8 38 13 0 13 72 13 77 0z m-128 -151 c20
-4 22 -7 10 -15 -10 -6 -7 -9 14 -9 16 0 26 4 22 10 -3 6 3 10 15 10 11 0 23
-7 26 -15 4 -8 18 -15 33 -15 15 0 36 -7 47 -16 18 -15 17 -15 -16 -9 -19 4
-46 8 -60 10 -14 1 -25 3 -25 4 0 1 -55 3 -123 4 -67 1 -122 -1 -122 -5 0 -5
-7 -8 -15 -8 -8 0 -15 7 -15 15 0 8 6 15 14 15 8 0 16 6 19 13 5 13 131 21
176 11z m-215 -245 c26 -22 92 -39 148 -39 24 0 49 -5 56 -12 9 -9 12 -9 12 1
0 7 10 11 25 9 36 -4 36 -22 0 -26 -16 -2 -36 -9 -43 -15 -14 -11 -142 -12
-179 -1 -29 8 -31 -11 -3 -26 24 -13 182 -46 265 -56 82 -9 98 -20 42 -28 -71
-11 -279 29 -345 66 -55 31 -67 32 -56 4 7 -18 24 -22 24 -5 0 6 7 4 15 -5 18
-18 19 -32 3 -40 -7 -3 2 -3 21 0 22 4 31 3 27 -4 -3 -6 -2 -13 4 -17 5 -3 10
0 10 7 0 8 5 6 11 -4 5 -10 19 -18 29 -18 11 0 20 -6 20 -14 0 -8 21 -22 48
-31 26 -10 61 -24 79 -31 17 -8 42 -14 55 -14 18 0 23 -6 24 -25 1 -15 -3 -25
-12 -25 -8 0 -14 4 -14 9 0 6 -31 9 -69 9 -37 -1 -82 4 -100 11 -17 8 -42 11
-56 9 -13 -3 -22 -1 -19 3 3 5 -1 9 -9 9 -21 0 -29 -27 -15 -50 14 -22 55 -43
69 -34 5 3 17 -3 27 -14 26 -30 172 -58 172 -33 0 5 -7 8 -16 7 -9 0 -19 4
-21 10 -2 7 15 12 49 13 50 2 97 6 108 10 3 1 -11 9 -30 17 -28 12 -32 17 -19
24 8 5 32 5 55 0 63 -15 124 -13 118 4 -7 19 33 31 51 16 8 -6 19 -9 24 -5 6
3 25 -4 43 -17 18 -13 34 -24 36 -24 2 -1 -3 -12 -10 -24 -13 -22 -7 -32 42
-60 12 -7 13 -12 3 -29 -7 -12 -13 -26 -13 -32 0 -13 -38 -49 -52 -49 -4 0 -8
-7 -8 -15 0 -8 -9 -20 -20 -27 -13 -9 -18 -19 -14 -35 4 -15 2 -23 -6 -23 -9
0 -8 -6 4 -19 14 -15 14 -20 4 -25 -10 -5 -10 -7 0 -12 17 -8 15 -24 -3 -24
-8 0 -15 -4 -15 -9 0 -5 -11 -12 -25 -15 -24 -6 -36 -26 -15 -26 15 0 12 -36
-4 -49 -7 -6 -22 -8 -31 -4 -12 4 -16 3 -12 -4 4 -6 23 -14 42 -17 41 -8 44
-18 10 -40 -30 -20 -35 -20 -35 -1 0 8 -4 15 -8 15 -5 0 -8 -10 -6 -22 1 -13
3 -27 3 -31 1 -4 10 -3 20 3 11 5 22 10 25 10 9 0 -17 -44 -30 -52 -6 -4 -9
-20 -6 -35 5 -27 4 -28 -15 -10 -11 9 -24 17 -29 17 -11 0 -12 -50 0 -68 5 -9
1 -18 -10 -27 -27 -20 -37 -18 -31 6 5 19 4 19 -18 5 -13 -9 -31 -13 -39 -10
-9 3 -16 1 -16 -5 0 -6 9 -11 19 -11 23 0 36 -16 21 -25 -6 -4 -8 -11 -5 -16
4 -5 -3 -9 -14 -9 -12 0 -21 -7 -21 -15 0 -8 6 -15 13 -15 6 0 -1 -7 -17 -15
-38 -20 -44 -19 -66 8 -15 18 -21 20 -31 10 -11 -11 -10 -13 3 -13 9 0 19 -7
22 -15 3 -9 23 -23 43 -32 35 -16 36 -17 13 -21 -13 -2 -26 1 -28 7 -2 6 -8
11 -13 11 -5 0 -18 9 -29 20 -11 11 -27 20 -35 20 -8 0 -15 6 -15 14 0 7 -6
19 -14 25 -8 7 -13 23 -11 37 1 13 -3 28 -10 32 -6 4 -22 28 -35 55 -13 26
-27 47 -32 47 -4 0 -8 6 -8 14 0 7 -12 26 -26 41 -28 31 -60 95 -47 95 5 0 0
5 -9 11 -10 5 -25 26 -34 47 -9 20 -34 71 -55 114 -22 42 -39 83 -39 91 0 8
-7 20 -15 27 -9 7 -14 19 -11 27 3 7 -1 13 -8 13 -9 0 -12 7 -9 19 3 11 -6 36
-21 57 -14 21 -26 47 -26 56 0 10 -4 18 -10 18 -5 0 -7 7 -4 15 4 9 0 15 -9
15 -21 0 -57 95 -60 162 -1 31 -6 54 -11 50 -5 -3 -6 0 -1 7 4 7 17 10 30 7
27 -7 41 19 30 54 -4 12 -2 20 5 20 7 0 9 8 5 19 -7 23 2 29 51 36 87 11 139
24 143 37 3 10 5 10 9 -2 3 -8 15 -22 26 -31z m741 -389 c-3 -5 -13 -10 -21
-10 -8 0 -14 5 -14 10 0 6 9 10 21 10 11 0 17 -4 14 -10z m-7 -41 c-2 -6 -8
-10 -13 -10 -5 0 -11 4 -13 10 -2 6 4 11 13 11 9 0 15 -5 13 -11z m-8 -99 c0
-5 -5 -10 -11 -10 -5 0 -7 5 -4 10 3 6 8 10 11 10 2 0 4 -4 4 -10z m-855 -122
c6 -29 4 -35 -12 -35 -10 -1 -25 1 -33 4 -8 3 -26 7 -39 9 -31 4 -37 12 -23
26 20 20 14 31 -13 25 -16 -3 -24 0 -22 7 2 6 14 10 25 8 12 -2 22 2 22 9 0 6
7 17 16 24 14 10 22 7 45 -16 15 -15 31 -43 34 -61z m772 -64 c-3 -3 -12 -4
-19 -1 -8 3 -5 6 6 6 11 1 17 -2 13 -5z m3 -38 c0 -11 -19 -15 -25 -6 -3 5 1
10 9 10 9 0 16 -2 16 -4z m-35 -25 c3 -5 0 -13 -6 -17 -6 -3 -15 -1 -19 6 -4
7 -5 -9 -2 -35 3 -35 2 -46 -7 -41 -6 4 -8 18 -5 32 4 17 1 26 -10 30 -21 8
-20 21 2 27 29 8 41 7 47 -2z m-64 -224 c-6 -8 -8 -17 -4 -20 3 -4 1 -7 -5 -7
-13 0 -16 22 -5 33 12 13 25 7 14 -6z m-1074 -142 c3 -20 3 -20 -6 0 -5 11
-10 14 -10 8 -1 -19 -21 -16 -21 3 0 23 34 13 37 -11z m-467 -69 c0 -22 -3
-27 -9 -17 -5 8 -7 20 -4 27 2 6 0 15 -6 19 -6 3 -11 11 -11 17 0 7 6 6 15 -2
8 -7 15 -27 15 -44z m1500 34 c0 -5 -7 -7 -15 -4 -8 4 -15 8 -15 10 0 2 7 4
15 4 8 0 15 -4 15 -10z m-920 -34 c0 -3 -4 -8 -10 -11 -5 -3 -10 -1 -10 4 0 6
5 11 10 11 6 0 10 -2 10 -4z m-552 -61 c-3 -3 -9 2 -12 12 -6 14 -5 15 5 6 7
-7 10 -15 7 -18z m1292 -45 c13 -8 13 -10 -2 -10 -9 0 -20 5 -23 10 -8 13 5
13 25 0z m-1540 -21 c0 -11 -4 -18 -10 -14 -5 3 -7 12 -3 20 7 21 13 19 13 -6z
m-110 -19 c0 -5 11 -10 25 -10 14 0 25 -4 25 -9 0 -14 -35 -19 -46 -7 -19 21
-25 36 -15 36 6 0 11 -4 11 -10z m214 -12 c8 -33 7 -48 -3 -48 -12 0 -41 57
-33 64 12 13 30 5 36 -16z m-364 -12 c0 -3 -4 -8 -10 -11 -5 -3 -10 -1 -10 4
0 6 5 11 10 11 6 0 10 -2 10 -4z m320 -35 c0 -6 -4 -13 -10 -16 -5 -3 -10 1
-10 9 0 9 5 16 10 16 6 0 10 -4 10 -9z m760 -245 c0 -3 -4 -8 -10 -11 -5 -3
-10 -1 -10 4 0 6 5 11 10 11 6 0 10 -2 10 -4z m26 -33 c-11 -11 -17 4 -9 23 7
18 8 18 11 1 2 -10 1 -21 -2 -24z m34 17 c0 -11 -4 -20 -10 -20 -5 0 -10 9
-10 20 0 11 5 20 10 20 6 0 10 -9 10 -20z m27 -2 c-3 -8 -6 -5 -6 6 -1 11 2
17 5 13 3 -3 4 -12 1 -19z m-1461 -175 c20 -27 16 -38 -6 -18 -20 18 -26 35
-14 35 4 0 13 -8 20 -17z m82 -52 c3 -10 -2 -12 -22 -7 -19 5 -26 3 -26 -8 0
-8 5 -18 10 -21 6 -4 7 -11 3 -18 -8 -12 -21 16 -22 48 -1 16 5 21 26 20 14 0
28 -6 31 -14z m-101 3 c-3 -3 -12 -4 -19 -1 -8 3 -5 6 6 6 11 1 17 -2 13 -5z
m103 -59 c0 -8 -2 -15 -4 -15 -2 0 -6 7 -10 15 -3 8 -1 15 4 15 6 0 10 -7 10
-15z m60 -41 c0 -24 -3 -25 -27 -19 -40 9 -56 29 -20 23 21 -4 27 -2 23 8 -3
8 1 14 9 14 9 0 15 -10 15 -26z m3960 6 c0 -5 -7 -10 -15 -10 -8 0 -15 5 -15
10 0 6 7 10 15 10 8 0 15 -4 15 -10z m-30 -40 c0 -5 -4 -10 -10 -10 -5 0 -10
5 -10 10 0 6 5 10 10 10 6 0 10 -4 10 -10z m-3933 -16 c-3 -3 -12 -4 -19 -1
-8 3 -5 6 6 6 11 1 17 -2 13 -5z m1283 -14 c0 -5 -2 -10 -4 -10 -3 0 -8 5 -11
10 -3 6 -1 10 4 10 6 0 11 -4 11 -10z m-1294 -20 c8 0 14 -7 14 -15 0 -19 -2
-19 -28 4 -12 10 -18 21 -15 25 4 4 9 2 11 -3 2 -6 10 -11 18 -11z m-59 -32
c-3 -8 -6 -5 -6 6 -1 11 2 17 5 13 3 -3 4 -12 1 -19z m1529 -22 c10 -8 16 -17
13 -20 -3 -4 -17 2 -30 13 -27 23 -13 28 17 7z m-1416 -43 c0 -9 3 -14 6 -10
6 6 74 -63 74 -76 0 -14 -39 17 -43 35 -3 10 -13 18 -24 18 -20 0 -47 35 -38
51 9 13 25 1 25 -18z m-36 -18 c3 -8 1 -15 -4 -15 -6 0 -10 7 -10 15 0 8 2 15
4 15 2 0 6 -7 10 -15z m1126 -9 c0 -8 -9 -14 -19 -13 -15 1 -17 4 -9 14 14 17
28 16 28 -1z m2787 8 c-3 -3 -12 -4 -19 -1 -8 3 -5 6 6 6 11 1 17 -2 13 -5z
m-2717 -95 c0 -10 -4 -19 -10 -19 -5 0 -10 4 -10 9 0 5 -3 17 -6 25 -5 12 -2
15 10 10 9 -3 16 -15 16 -25z m47 15 c-3 -3 -12 -4 -19 -1 -8 3 -5 6 6 6 11 1
17 -2 13 -5z m-119 -33 c17 -8 32 -17 32 -22 0 -13 -14 -11 -46 5 -25 13 -29
13 -40 -2 -13 -16 -13 -16 -14 1 0 11 -8 17 -25 17 -14 0 -25 4 -25 9 0 6 16
7 35 4 26 -4 35 -2 35 8 0 9 3 10 8 3 4 -5 22 -16 40 -23z m142 15 c0 -2 -7
-6 -15 -10 -8 -3 -15 -1 -15 4 0 6 7 10 15 10 8 0 15 -2 15 -4z m-1160 -27 c0
-4 -7 -6 -15 -3 -22 9 -19 -18 5 -44 l21 -22 -21 0 c-13 0 -20 7 -20 18 0 10
-5 23 -12 30 -8 8 -8 15 1 26 12 15 41 12 41 -5z m875 1 c10 -11 14 -20 8 -20
-5 0 -18 9 -28 20 -10 11 -14 20 -8 20 5 0 18 -9 28 -20z m-855 -30 c0 -5 -2
-10 -4 -10 -3 0 -8 5 -11 10 -3 6 -1 10 4 10 6 0 11 -4 11 -10z m643 -21 c4
-16 3 -18 -9 -8 -16 13 -19 29 -5 29 5 0 11 -9 14 -21z m147 7 c0 -2 -7 -6
-15 -10 -8 -3 -15 -1 -15 4 0 6 7 10 15 10 8 0 15 -2 15 -4z m3140 -18 c0 -5
-14 -8 -31 -8 -16 0 -28 4 -25 9 7 11 56 9 56 -1z m-3910 -17 c0 -13 -28 -22
-35 -11 -3 4 1 11 7 13 20 8 28 8 28 -2z m-115 -51 c7 -12 -44 -5 -56 7 -6 6
1 8 21 5 17 -2 33 -8 35 -12z m4110 -49 c3 -5 1 -12 -5 -16 -5 -3 -10 1 -10 9
0 18 6 21 15 7z m65 -31 c0 -5 -4 -10 -10 -10 -5 0 -10 5 -10 10 0 6 5 10 10
10 6 0 10 -4 10 -10z m80 -69 c0 -5 -20 -11 -45 -13 -51 -4 -47 9 5 15 19 2
36 5 38 5 1 1 2 -2 2 -7z m40 -1 c0 -5 -4 -10 -10 -10 -5 0 -10 5 -10 10 0 6
5 10 10 10 6 0 10 -4 10 -10z m-30 -90 c8 -5 11 -10 5 -10 -5 0 -17 5 -25 10
-8 5 -10 10 -5 10 6 0 17 -5 25 -10z m70 -10 c0 -5 -2 -10 -4 -10 -3 0 -8 5
-11 10 -3 6 -1 10 4 10 6 0 11 -4 11 -10z m184 -29 c3 -5 -1 -11 -9 -15 -9 -3
-15 0 -15 9 0 16 16 20 24 6z m-97 -47 c-3 -3 -12 -4 -19 -1 -8 3 -5 6 6 6 11
1 17 -2 13 -5z m160 -66 c-3 -7 -5 -2 -5 12 0 14 2 19 5 13 2 -7 2 -19 0 -25z
m-7327 -878 c-8 -5 -26 -9 -40 -9 l-25 1 25 8 c14 4 32 8 40 9 13 1 13 0 0 -9z"/>
<path d="M6370 5700 c0 -5 7 -10 15 -10 8 0 15 5 15 10 0 6 -7 10 -15 10 -8 0
-15 -4 -15 -10z"/>
<path d="M6395 5660 c3 -5 12 -7 20 -3 21 7 19 13 -6 13 -11 0 -18 -4 -14 -10z"/>
<path d="M6330 5620 c0 -5 7 -10 16 -10 8 0 12 5 9 10 -3 6 -10 10 -16 10 -5
0 -9 -4 -9 -10z"/>
<path d="M5841 4441 c-9 -6 -11 -16 -7 -27 7 -18 8 -18 17 -1 14 23 8 39 -10
28z"/>
<path d="M5520 3823 c0 -5 11 -9 25 -9 14 -1 25 2 25 7 0 5 -11 9 -25 9 -14 0
-25 -3 -25 -7z"/>
<path d="M5520 3755 c7 -9 15 -13 17 -11 7 7 -7 26 -19 26 -6 0 -6 -6 2 -15z"/>
<path d="M5495 3720 c3 -5 8 -10 11 -10 2 0 4 5 4 10 0 6 -5 10 -11 10 -5 0
-7 -4 -4 -10z"/>
<path d="M6475 8310 c3 -5 8 -10 11 -10 2 0 4 5 4 10 0 6 -5 10 -11 10 -5 0
-7 -4 -4 -10z"/>
<path d="M6498 8083 c7 -3 16 -2 19 1 4 3 -2 6 -13 5 -11 0 -14 -3 -6 -6z"/>
<path d="M6410 7949 c0 -5 9 -9 20 -9 11 0 20 2 20 4 0 2 -9 6 -20 9 -11 3
-20 1 -20 -4z"/>
<path d="M6460 7800 c0 -5 7 -10 15 -10 8 0 15 5 15 10 0 6 -7 10 -15 10 -8 0
-15 -4 -15 -10z"/>
<path d="M3180 6550 c0 -5 5 -10 10 -10 6 0 10 5 10 10 0 6 -4 10 -10 10 -5 0
-10 -4 -10 -10z"/>
<path d="M1090 6516 c-25 -7 -59 -20 -77 -29 -18 -10 -43 -17 -56 -17 -14 0
-44 -7 -67 -15 -49 -17 -61 -19 -40 -5 12 8 11 10 -6 10 -11 0 -24 -3 -27 -6
-4 -4 -31 -8 -62 -10 -30 -1 -78 -6 -107 -10 -29 -4 -57 -7 -62 -5 -4 1 -19
-5 -32 -14 -14 -9 -58 -18 -102 -22 -51 -4 -80 -10 -85 -20 -5 -9 -22 -14 -40
-12 -41 2 -67 -9 -67 -30 -1 -14 -2 -14 -14 2 -16 20 -22 22 -24 5 -1 -19 -10
-57 -16 -66 -2 -4 11 -18 31 -32 31 -21 33 -25 19 -36 -15 -10 -15 -12 -1 -17
8 -4 14 -16 12 -28 -2 -17 11 -27 68 -56 39 -19 87 -43 107 -54 20 -10 45 -19
54 -19 9 0 31 -8 48 -19 17 -10 49 -22 71 -26 22 -4 45 -11 51 -16 7 -5 16 -9
20 -8 5 1 32 -8 59 -20 28 -13 65 -25 83 -28 24 -4 30 -9 22 -18 -7 -9 1 -15
33 -25 23 -8 47 -17 53 -22 26 -19 161 -86 187 -92 15 -4 37 -16 48 -27 12
-12 26 -22 33 -23 6 -1 18 -6 26 -11 25 -16 53 -33 88 -50 17 -10 32 -23 32
-30 0 -14 28 -29 48 -26 6 1 12 -3 12 -9 0 -6 8 -10 18 -8 11 2 26 -3 35 -10
27 -23 86 -5 109 34 11 19 22 34 25 34 6 0 75 -51 93 -70 8 -8 35 -40 59 -70
46 -56 99 -110 110 -110 3 0 31 -24 62 -52 113 -106 145 -134 194 -173 66 -53
62 -50 125 -95 135 -96 174 -128 211 -176 21 -28 39 -56 39 -61 0 -6 7 -16 15
-23 9 -7 13 -15 10 -18 -3 -3 0 -11 5 -17 14 -17 -6 -117 -27 -132 -9 -7 -13
-13 -7 -13 5 0 4 -4 -2 -8 -5 -4 -26 -38 -45 -77 -18 -38 -38 -73 -42 -76 -5
-3 -8 -9 -7 -13 3 -13 -6 -22 -43 -45 -20 -12 -35 -27 -31 -32 3 -5 -2 -12
-10 -15 -10 -4 -16 -18 -16 -35 0 -28 -7 -33 -47 -32 -6 0 -27 -12 -45 -27
-27 -23 -31 -31 -20 -41 7 -7 12 -38 12 -69 0 -45 -4 -61 -21 -76 -12 -10 -27
-31 -35 -47 -13 -24 -13 -28 2 -34 9 -3 19 0 24 7 4 6 25 12 46 12 22 0 47 7
56 15 13 11 21 12 37 3 12 -6 21 -9 21 -6 0 2 30 -6 68 -19 71 -25 94 -49 90
-95 -3 -22 -9 -26 -48 -30 -25 -3 -52 -10 -62 -15 -15 -9 -15 -13 2 -47 23
-47 98 -120 113 -111 47 26 67 47 63 61 -4 12 3 21 21 30 30 13 63 16 63 5 0
-5 15 -18 33 -31 40 -26 102 -30 111 -6 4 11 13 14 27 11 15 -4 19 -2 15 9 -3
8 0 17 7 20 24 9 -4 159 -45 239 -20 39 -46 99 -59 135 -12 36 -26 70 -30 75
-4 6 -23 52 -43 104 -33 86 -36 104 -42 235 -8 169 1 214 50 251 39 30 98 33
169 9 39 -13 47 -20 47 -40 0 -13 5 -24 10 -24 6 0 10 -20 10 -45 0 -25 4 -45
10 -45 5 0 7 -8 4 -17 -5 -17 -5 -17 6 0 6 9 9 21 6 26 -6 9 3 61 23 136 15
55 41 389 30 393 -4 2 -4 13 0 25 5 12 11 47 15 77 10 89 27 182 43 232 8 26
12 52 9 57 -3 5 1 14 9 21 8 7 15 18 15 24 0 6 -5 4 -11 -4 -8 -11 -9 -8 -4
15 4 16 12 33 18 37 8 5 7 8 -3 8 -12 0 -12 2 -2 8 7 5 10 16 6 25 -3 9 -10
15 -14 12 -12 -7 -7 28 5 40 17 16 38 87 28 94 -8 6 -33 56 -33 67 0 3 4 3 9
0 9 -6 21 16 21 38 0 9 -9 12 -27 8 -28 -5 -28 -5 -10 16 11 12 16 26 11 33
-5 8 -3 10 5 4 10 -6 11 8 6 61 -4 38 -12 72 -17 75 -6 4 -6 9 1 13 6 4 11 2
11 -3 0 -6 5 -11 10 -11 6 0 5 8 -2 19 -10 16 -8 26 7 55 11 20 23 36 27 36 5
0 8 5 8 12 0 9 -3 9 -11 1 -6 -6 -18 -9 -25 -6 -10 3 -12 0 -8 -10 3 -8 1 -18
-5 -22 -6 -3 -11 -15 -11 -26 0 -10 -4 -19 -10 -19 -11 0 -39 -60 -46 -100 -3
-13 -9 -29 -14 -35 -11 -13 -42 -147 -45 -195 -2 -19 -5 -42 -8 -50 -8 -22
-27 -151 -26 -180 0 -14 -2 -47 -4 -75 -3 -27 -8 -88 -12 -135 -13 -145 -40
-169 -171 -144 -20 4 -46 -1 -77 -15 -59 -27 -73 -26 -93 5 -29 43 -96 69
-209 80 -22 2 -85 27 -140 54 -112 56 -182 111 -274 214 -18 20 -32 26 -67 26
-65 0 -90 16 -118 76 -26 55 -32 59 -109 70 -39 5 -50 12 -62 35 -20 37 -40
50 -32 20 3 -13 3 -20 0 -17 -4 3 -12 1 -20 -5 -9 -8 -13 -8 -13 -1 0 6 5 14
11 18 8 4 7 9 -2 15 -8 4 -14 12 -15 16 -2 16 -18 49 -40 78 -32 44 -136 261
-193 400 l-48 120 -39 2 c-21 1 -59 -4 -84 -11z m456 -695 c-8 -13 -36 -15
-36 -3 0 4 5 13 12 20 14 14 34 0 24 -17z"/>
<path d="M3248 6481 c-16 -9 -28 -19 -28 -22 0 -13 49 4 55 18 8 22 4 22 -27
4z"/>
<path d="M3127 6473 c-10 -9 -9 -33 1 -33 4 0 8 9 8 20 0 23 0 22 -9 13z"/>
<path d="M3100 6418 c0 -4 7 -8 15 -8 8 0 15 4 15 8 0 5 -7 9 -15 9 -8 0 -15
-4 -15 -9z"/>
<path d="M3060 6385 c-8 -9 -8 -15 -2 -15 12 0 26 19 19 26 -2 2 -10 -2 -17
-11z"/>
<path d="M5770 6290 c0 -5 5 -10 11 -10 5 0 7 5 4 10 -3 6 -8 10 -11 10 -2 0
-4 -4 -4 -10z"/>
<path d="M5705 5870 c-4 -6 -3 -16 3 -22 6 -6 12 -6 17 2 4 6 3 16 -3 22 -6 6
-12 6 -17 -2z"/>
<path d="M5725 5720 c3 -5 13 -10 21 -10 8 0 14 5 14 10 0 6 -9 10 -21 10 -11
0 -17 -4 -14 -10z"/>
<path d="M3849 5594 c-11 -5 -16 -13 -13 -17 4 -4 2 -7 -4 -7 -7 0 -12 5 -12
10 0 17 -33 11 -79 -15 -33 -19 -46 -23 -52 -14 -4 8 -9 1 -11 -17 -3 -25 -7
-29 -31 -27 -22 2 -26 -1 -18 -11 6 -7 7 -16 3 -21 -4 -4 8 -5 26 -2 19 4 32
2 32 -4 0 -6 -4 -7 -10 -4 -5 3 -10 1 -10 -5 0 -7 6 -10 14 -7 7 3 26 -1 41
-9 14 -7 43 -18 64 -24 20 -5 47 -19 59 -30 11 -11 25 -20 29 -20 13 0 43 -39
43 -55 0 -8 9 -20 20 -27 11 -7 20 -16 20 -20 0 -5 -9 -8 -20 -8 -11 0 -20 5
-20 10 0 6 -4 10 -10 10 -5 0 -10 -7 -10 -17 0 -15 -2 -15 -17 0 -19 16 -67
13 -91 -6 -7 -6 -23 -11 -35 -12 -125 -11 -289 -40 -326 -60 -17 -8 -34 -15
-39 -15 -17 0 -71 -56 -82 -84 -9 -24 -7 -28 15 -36 14 -5 25 -17 25 -26 0
-10 6 -14 14 -11 39 15 88 18 120 7 20 -6 36 -15 36 -19 0 -8 9 -10 53 -13 12
-1 27 -9 33 -17 7 -9 21 -12 41 -8 17 3 35 1 41 -5 7 -7 33 -8 74 -3 82 9 217
14 198 7 -21 -8 -40 -29 -32 -36 3 -4 -1 -4 -9 -1 -9 3 -21 0 -28 -8 -9 -12
-6 -16 19 -20 27 -6 43 -27 20 -27 -5 0 -10 5 -10 10 0 6 -4 10 -10 10 -5 0
-7 -7 -4 -15 4 -9 0 -15 -10 -15 -9 0 -16 -4 -16 -9 0 -5 -15 -13 -32 -16 -18
-4 -38 -11 -43 -16 -6 -4 -33 -12 -60 -17 -54 -10 -39 -14 55 -14 100 0 110 2
110 17 0 8 5 15 10 15 6 0 10 -4 10 -10 0 -5 6 -10 13 -10 9 0 12 10 9 30 -3
18 0 30 7 30 6 0 11 -4 11 -10 0 -5 6 -10 14 -10 8 0 17 -6 19 -12 3 -7 6 -3
6 10 1 12 -5 22 -11 22 -7 0 -19 12 -25 27 -11 22 -10 31 1 48 14 21 74 45
115 45 11 0 26 9 33 20 7 11 22 20 32 20 36 0 86 24 92 44 4 12 16 27 27 35
15 11 18 21 13 52 -3 21 -2 40 2 43 5 3 7 18 4 34 -3 24 0 30 18 35 12 3 20
11 18 19 -3 7 2 18 11 25 11 9 12 12 3 13 -10 0 -10 5 -2 21 8 14 8 24 1 33
-7 9 -7 16 0 23 8 8 8 20 1 40 l-10 28 -2 -30 c-1 -17 -4 -23 -7 -13 -2 9 -13
20 -24 23 -23 8 -24 18 -4 39 8 8 11 17 6 20 -5 3 -14 -1 -21 -9 -17 -20 -31
-19 -23 2 4 11 3 14 -6 9 -6 -4 -19 -2 -28 6 -15 11 -16 11 -10 -4 10 -26 -15
-22 -47 7 -15 14 -36 25 -47 25 -11 0 -22 7 -26 16 -6 15 -7 15 -19 -1 -13
-18 -14 -18 -34 0 -11 10 -23 15 -27 12 -3 -4 -12 2 -20 12 -15 22 -112 33
-144 15z m21 -334 c0 -5 -4 -10 -10 -10 -5 0 -10 5 -10 10 0 6 5 10 10 10 6 0
10 -4 10 -10z m-90 -71 c18 -5 7 -8 -40 -10 -113 -4 -158 -13 -224 -45 -28
-13 -58 -24 -67 -24 -29 0 -66 -21 -78 -44 -10 -20 -11 -20 -5 4 16 63 118
115 248 124 32 3 60 7 63 10 5 5 65 -3 103 -15z"/>
<path d="M3635 5530 c3 -5 13 -10 21 -10 8 0 14 5 14 10 0 6 -9 10 -21 10 -11
0 -17 -4 -14 -10z"/>
<path d="M8305 5050 c3 -5 8 -10 11 -10 2 0 4 5 4 10 0 6 -5 10 -11 10 -5 0
-7 -4 -4 -10z"/>
<path d="M3570 4901 c0 -4 7 -14 15 -21 8 -7 15 -9 15 -5 0 5 10 0 21 -11 14
-12 23 -15 26 -8 2 7 23 10 52 7 46 -3 49 -2 44 17 -4 15 -13 20 -37 19 -17 0
-55 2 -83 5 -30 4 -53 3 -53 -3z"/>
<path d="M3765 4901 c-3 -6 -1 -11 5 -11 6 0 9 -4 5 -9 -3 -5 0 -13 6 -16 18
-12 22 3 6 25 -9 13 -17 17 -22 11z"/>
<path d="M3568 4853 c6 -2 18 -2 25 0 6 3 1 5 -13 5 -14 0 -19 -2 -12 -5z"/>
<path d="M3728 4823 c7 -3 16 -2 19 1 4 3 -2 6 -13 5 -11 0 -14 -3 -6 -6z"/>
<path d="M2650 4779 c0 -5 -4 -8 -9 -5 -14 9 -21 -21 -21 -95 0 -39 4 -69 10
-69 6 0 10 -15 10 -33 0 -19 3 -36 6 -39 10 -10 64 26 70 47 14 46 71 74 89
45 3 -5 10 -10 15 -10 18 0 -26 85 -66 127 -31 33 -48 43 -72 43 -18 0 -32 -5
-32 -11z"/>
<path d="M3861 4654 c0 -11 3 -14 6 -6 3 7 2 16 -1 19 -3 4 -6 -2 -5 -13z"/>
<path d="M3797 4636 c-14 -13 -28 -21 -31 -18 -3 3 -16 0 -29 -6 -12 -6 -29
-13 -37 -16 -8 -3 7 -3 35 0 66 8 118 34 100 51 -10 10 -18 7 -38 -11z"/>
<path d="M2906 4527 c3 -10 9 -15 12 -12 3 3 0 11 -7 18 -10 9 -11 8 -5 -6z"/>
<path d="M2890 4465 c-19 -20 -21 -27 -11 -39 7 -8 10 -20 7 -25 -8 -13 3 -61
14 -61 16 0 41 82 34 116 -7 41 -13 42 -44 9z"/>
<path d="M575 4456 c-27 -6 -54 -14 -60 -17 -15 -10 -67 -20 -122 -24 -26 -2
-50 -5 -53 -6 -3 -1 -9 -1 -13 0 -5 1 -27 -4 -50 -10 -23 -7 -94 -12 -157 -13
l-115 -1 0 -130 0 -130 155 -1 c154 -1 209 4 305 26 48 11 133 48 166 73 21
16 60 97 53 109 -3 5 -1 14 4 21 5 7 12 35 14 64 l5 52 -41 -1 c-23 -1 -63 -6
-91 -12z"/>
<path d="M2830 4046 c0 -2 7 -9 15 -16 13 -11 14 -10 9 4 -5 14 -24 23 -24 12z"/>
<path d="M2235 3920 c-8 -13 4 -32 16 -25 12 8 12 35 0 35 -6 0 -13 -4 -16
-10z"/>
<path d="M4236 3845 c3 -16 7 -44 8 -61 2 -25 22 -68 51 -112 1 -1 10 0 19 4
20 8 21 24 1 24 -8 0 -15 5 -15 10 0 6 -7 10 -17 10 -9 0 -13 3 -10 6 3 4 2
14 -3 23 -10 19 4 50 17 38 4 -5 1 -12 -7 -17 -13 -8 -12 -10 3 -10 13 0 18 6
15 23 -2 14 -9 22 -20 21 -10 -1 -17 1 -16 5 2 22 -3 41 -11 36 -5 -3 -12 3
-15 12 -3 10 -3 5 0 -12z"/>
<path d="M4139 3843 c-13 -16 -12 -17 4 -4 9 7 17 15 17 17 0 8 -8 3 -21 -13z"/>
<path d="M4409 3808 c4 -28 6 -29 9 -9 2 13 0 27 -5 32 -6 6 -7 -3 -4 -23z"/>
<path d="M2236 3786 c-9 -14 -14 -31 -11 -38 6 -14 60 -48 76 -48 14 0 11 26
-6 40 -8 7 -15 20 -15 30 0 10 -6 23 -14 29 -10 9 -17 6 -30 -13z"/>
<path d="M2941 3787 c-6 -8 -8 -16 -6 -19 3 -3 -6 -3 -20 -1 -32 7 -32 -10 0
-25 39 -18 65 -15 65 7 0 11 -5 23 -10 26 -6 4 -8 11 -5 16 9 14 -11 11 -24
-4z"/>
<path d="M2850 3780 c0 -5 5 -10 11 -10 5 0 7 5 4 10 -3 6 -8 10 -11 10 -2 0
-4 -4 -4 -10z"/>
<path d="M4085 3700 c3 -5 11 -10 16 -10 6 0 7 5 4 10 -3 6 -11 10 -16 10 -6
0 -7 -4 -4 -10z"/>
<path d="M2460 3680 c0 -5 5 -10 10 -10 6 0 10 5 10 10 0 6 -4 10 -10 10 -5 0
-10 -4 -10 -10z"/>
<path d="M3910 3670 c-13 -8 -12 -10 3 -10 9 0 17 5 17 10 0 12 -1 12 -20 0z"/>
<path d="M4253 3665 c-7 -8 -9 -16 -4 -19 5 -3 12 1 15 10 8 22 4 25 -11 9z"/>
<path d="M4323 3662 c-8 -5 -7 -11 3 -19 15 -14 27 -3 16 14 -4 7 -13 9 -19 5z"/>
<path d="M3948 3653 c7 -3 16 -2 19 1 4 3 -2 6 -13 5 -11 0 -14 -3 -6 -6z"/>
<path d="M4440 3651 c0 -5 5 -13 10 -16 6 -3 10 -2 10 4 0 5 -4 13 -10 16 -5
3 -10 2 -10 -4z"/>
<path d="M4031 3634 c0 -11 3 -14 6 -6 3 7 2 16 -1 19 -3 4 -6 -2 -5 -13z"/>
<path d="M4540 3640 c0 -5 5 -10 10 -10 6 0 10 5 10 10 0 6 -4 10 -10 10 -5 0
-10 -4 -10 -10z"/>
<path d="M4300 3626 c0 -2 7 -9 15 -16 13 -11 14 -10 9 4 -5 14 -24 23 -24 12z"/>
<path d="M4391 3614 c0 -11 3 -14 6 -6 3 7 2 16 -1 19 -3 4 -6 -2 -5 -13z"/>
<path d="M4643 3573 c9 -2 23 -2 30 0 6 3 -1 5 -18 5 -16 0 -22 -2 -12 -5z"/>
<path d="M3600 3420 c-13 -8 -12 -10 3 -10 9 0 17 5 17 10 0 12 -1 12 -20 0z"/>
<path d="M4241 3323 c7 -12 15 -20 18 -17 3 2 -3 12 -13 22 -17 16 -18 16 -5
-5z"/>
<path d="M4001 3287 c0 -12 3 -16 6 -9 6 14 33 16 33 2 0 -5 5 -10 11 -10 21
0 2 24 -24 31 -23 6 -27 4 -26 -14z"/>
<path d="M4275 3299 c-4 -6 -5 -12 -2 -15 2 -3 7 2 10 11 7 17 1 20 -8 4z"/>
<path d="M4225 3280 c3 -5 8 -10 11 -10 2 0 4 5 4 10 0 6 -5 10 -11 10 -5 0
-7 -4 -4 -10z"/>
<path d="M4290 3280 c0 -5 6 -10 14 -10 8 0 23 -3 33 -6 16 -5 16 -4 -1 10
-22 18 -46 21 -46 6z"/>
<path d="M3013 3195 c-6 -14 -9 -25 -6 -25 9 0 33 29 33 39 0 19 -15 11 -27
-14z"/>
<path d="M3467 3214 c-8 -8 1 -24 14 -24 5 0 9 7 9 15 0 15 -12 20 -23 9z"/>
<path d="M3515 3211 c-3 -5 -1 -12 5 -16 5 -3 10 1 10 9 0 18 -6 21 -15 7z"/>
<path d="M3385 3200 c-3 -5 1 -10 10 -10 9 0 13 5 10 10 -3 6 -8 10 -10 10 -2
0 -7 -4 -10 -10z"/>
<path d="M3290 3177 c0 -14 20 -37 32 -37 13 0 9 20 -6 36 -18 17 -26 18 -26
1z"/>
<path d="M3545 3180 c-4 -6 2 -13 12 -17 10 -3 21 -8 26 -10 4 -2 7 0 7 4 0
14 -38 34 -45 23z"/>
<path d="M2750 3126 c0 -9 7 -16 16 -16 17 0 14 22 -4 28 -7 2 -12 -3 -12 -12z"/>
<path d="M3540 3130 c0 -11 42 -31 49 -24 5 5 -30 33 -41 34 -5 0 -8 -5 -8
-10z"/>
<path d="M2853 3122 c-33 -5 -28 -22 5 -22 15 0 38 -7 50 -16 12 -8 22 -10 22
-5 0 15 27 14 33 -1 3 -7 6 1 6 19 1 32 1 32 -46 30 -27 -1 -58 -3 -70 -5z"/>
<path d="M4081 3056 c-7 -8 -9 -21 -5 -27 5 -9 10 -5 16 11 10 28 5 36 -11 16z"/>
<path d="M3606 2902 c-11 -10 -6 -22 9 -22 7 0 18 -8 24 -17 12 -23 22 -13 15
14 -6 20 -37 37 -48 25z"/>
<path d="M4670 2816 c0 -16 28 -42 36 -33 3 3 -4 15 -15 26 -14 14 -21 17 -21
7z"/>
<path d="M4580 2805 c0 -8 6 -15 13 -15 6 0 23 -3 37 -6 l25 -6 -24 21 c-27
25 -51 27 -51 6z"/>
<path d="M7555 2780 c3 -5 11 -10 16 -10 6 0 7 5 4 10 -3 6 -11 10 -16 10 -6
0 -7 -4 -4 -10z"/>
<path d="M3810 2759 c0 -9 7 -22 15 -29 19 -16 19 0 0 26 -12 16 -14 16 -15 3z"/>
<path d="M4797 2763 c-9 -2 -15 -9 -12 -14 9 -14 22 -11 29 6 3 8 4 14 3 14
-1 -1 -10 -3 -20 -6z"/>
<path d="M3855 2730 c-3 -5 -1 -10 4 -10 6 0 11 5 11 10 0 6 -2 10 -4 10 -3 0
-8 -4 -11 -10z"/>
<path d="M3900 2727 c0 -8 7 -17 15 -21 8 -3 15 -2 15 3 0 5 -7 14 -15 21 -12
10 -15 10 -15 -3z"/>
<path d="M4730 2715 c0 -8 7 -15 16 -15 14 0 14 3 4 15 -7 8 -14 15 -16 15 -2
0 -4 -7 -4 -15z"/>
<path d="M3795 2710 c3 -5 8 -10 11 -10 2 0 4 5 4 10 0 6 -5 10 -11 10 -5 0
-7 -4 -4 -10z"/>
<path d="M3850 2690 c0 -5 9 -10 20 -10 11 0 20 5 20 10 0 6 -9 10 -20 10 -11
0 -20 -4 -20 -10z"/>
<path d="M975 2683 c-11 -3 -31 -10 -45 -16 -14 -6 -46 -11 -71 -11 -25 -1
-53 -7 -63 -15 -15 -13 -39 -57 -48 -90 -2 -8 -17 -15 -32 -17 -16 -2 -36 -9
-45 -17 -9 -8 -22 -12 -28 -10 -17 6 -16 3 3 -36 11 -22 14 -45 10 -69 -4 -30
-1 -41 21 -64 30 -31 48 -35 57 -13 3 10 19 15 47 15 25 0 50 7 65 19 23 18
145 62 204 74 41 9 114 38 130 52 16 15 81 34 143 42 20 3 37 9 37 13 0 4 12
10 28 13 32 7 92 59 92 81 0 11 -11 17 -32 18 -78 4 -84 5 -258 27 -78 11
-181 12 -215 4z"/>
<path d="M4838 2673 c6 -2 18 -2 25 0 6 3 1 5 -13 5 -14 0 -19 -2 -12 -5z"/>
<path d="M7530 2644 c0 -14 4 -23 10 -19 6 3 10 15 10 26 0 10 -4 19 -10 19
-5 0 -10 -12 -10 -26z"/>
<path d="M1595 2642 c-28 -6 -44 -20 -73 -67 -14 -22 -31 -46 -39 -53 -27 -28
-5 -22 53 12 54 33 143 104 133 107 -12 4 -56 4 -74 1z"/>
<path d="M3935 2639 c-4 -6 -5 -12 -2 -15 2 -3 7 2 10 11 7 17 1 20 -8 4z"/>
<path d="M7545 2613 c-20 -15 -19 -15 5 -9 14 3 31 6 38 6 7 0 10 5 7 10 -9
14 -27 12 -50 -7z"/>
<path d="M4111 2611 c-10 -6 -10 -10 -1 -16 13 -8 24 -1 19 14 -3 6 -10 7 -18
2z"/>
<path d="M7741 2543 c-1 -7 -12 -13 -26 -13 -25 0 -33 -14 -15 -25 6 -3 10
-14 10 -25 0 -11 10 -20 25 -24 16 -4 22 -11 19 -21 -4 -8 -1 -15 5 -15 6 0
11 7 11 15 0 8 7 15 17 15 14 0 15 2 1 18 -9 9 -18 24 -21 32 -4 10 -6 7 -6
-7 -1 -27 -13 -29 -32 -7 -11 14 -10 18 5 29 10 8 16 20 13 27 -4 10 -6 10 -6
1z"/>
<path d="M7685 2450 c3 -5 16 -10 28 -10 18 0 19 2 7 10 -20 13 -43 13 -35 0z"/>
<path d="M7850 2400 c0 -5 7 -10 16 -10 8 0 12 5 9 10 -3 6 -10 10 -16 10 -5
0 -9 -4 -9 -10z"/>
<path d="M8022 2374 c-7 -8 -8 -14 -3 -14 10 0 25 19 20 25 -2 1 -10 -3 -17
-11z"/>
<path d="M7898 2373 c6 -2 18 -2 25 0 6 3 1 5 -13 5 -14 0 -19 -2 -12 -5z"/>
<path d="M3378 2333 c7 -3 16 -2 19 1 4 3 -2 6 -13 5 -11 0 -14 -3 -6 -6z"/>
<path d="M3370 2310 c0 -6 7 -10 15 -10 8 0 15 2 15 4 0 2 -7 6 -15 10 -8 3
-15 1 -15 -4z"/>
<path d="M3411 2260 c13 -16 24 -28 27 -26 6 6 -29 56 -39 56 -5 0 0 -13 12
-30z"/>
<path d="M3436 2277 c3 -10 9 -15 12 -12 3 3 0 11 -7 18 -10 9 -11 8 -5 -6z"/>
<path d="M8172 2160 c0 -14 2 -19 5 -12 2 6 2 18 0 25 -3 6 -5 1 -5 -13z"/>
<path d="M3250 2083 c0 -12 5 -25 10 -28 13 -8 13 15 0 35 -8 12 -10 11 -10
-7z"/>
<path d="M8250 2020 c0 -5 5 -10 10 -10 6 0 10 5 10 10 0 6 -4 10 -10 10 -5 0
-10 -4 -10 -10z"/>
<path d="M40 1749 c0 -5 5 -7 10 -4 6 3 10 8 10 11 0 2 -4 4 -10 4 -5 0 -10
-5 -10 -11z"/>
<path d="M3350 1234 c0 -12 7 -27 15 -34 23 -19 25 -9 4 25 -17 26 -19 27 -19
9z"/>
<path d="M4920 559 c0 -5 5 -7 10 -4 6 3 10 8 10 11 0 2 -4 4 -10 4 -5 0 -10
-5 -10 -11z"/>
</g>
</svg>
